<?xml version="1.0" encoding="UTF-8" standalone="no"?>
<!DOCTYPE svg PUBLIC "-//W3C//DTD SVG 1.1//EN"
 "http://www.w3.org/Graphics/SVG/1.1/DTD/svg11.dtd">
<!-- Generated by graphviz version 2.40.1 (0)
 -->
<!-- Title: snakemake_dag Pages: 1 -->
<svg width="193pt" height="260pt"
 viewBox="0.00 0.00 192.50 260.00" xmlns="http://www.w3.org/2000/svg" xmlns:xlink="http://www.w3.org/1999/xlink">
<g id="graph0" class="graph" transform="scale(1 1) rotate(0) translate(4 256)">
<title>snakemake_dag</title>
<polygon fill="#ffffff" stroke="transparent" points="-4,4 -4,-256 188.5,-256 188.5,4 -4,4"/>
<!-- 0 -->
<g id="node1" class="node">
<title>0</title>
<path fill="none" stroke="#d85656" stroke-width="2" d="M119.5,-36C119.5,-36 89.5,-36 89.5,-36 83.5,-36 77.5,-30 77.5,-24 77.5,-24 77.5,-12 77.5,-12 77.5,-6 83.5,0 89.5,0 89.5,0 119.5,0 119.5,0 125.5,0 131.5,-6 131.5,-12 131.5,-12 131.5,-24 131.5,-24 131.5,-30 125.5,-36 119.5,-36"/>
<text text-anchor="middle" x="104.5" y="-15.5" font-family="sans" font-size="10.00" fill="#000000">all</text>
</g>
<!-- 1 -->
<g id="node2" class="node">
<title>1</title>
<path fill="none" stroke="#d8bc56" stroke-width="2" d="M150,-108C150,-108 59,-108 59,-108 53,-108 47,-102 47,-96 47,-96 47,-84 47,-84 47,-78 53,-72 59,-72 59,-72 150,-72 150,-72 156,-72 162,-78 162,-84 162,-84 162,-96 162,-96 162,-102 156,-108 150,-108"/>
<text text-anchor="middle" x="104.5" y="-87.5" font-family="sans" font-size="10.00" fill="#000000">organize_results_dir</text>
</g>
<!-- 1&#45;&gt;0 -->
<g id="edge1" class="edge">
<title>1&#45;&gt;0</title>
<path fill="none" stroke="#c0c0c0" stroke-width="2" d="M104.5,-71.8314C104.5,-64.131 104.5,-54.9743 104.5,-46.4166"/>
<polygon fill="#c0c0c0" stroke="#c0c0c0" stroke-width="2" points="108.0001,-46.4132 104.5,-36.4133 101.0001,-46.4133 108.0001,-46.4132"/>
</g>
<!-- 2 -->
<g id="node3" class="node">
<title>2</title>
<path fill="none" stroke="#56c1d8" stroke-width="2" d="M84.5,-180C84.5,-180 36.5,-180 36.5,-180 30.5,-180 24.5,-174 24.5,-168 24.5,-168 24.5,-156 24.5,-156 24.5,-150 30.5,-144 36.5,-144 36.5,-144 84.5,-144 84.5,-144 90.5,-144 96.5,-150 96.5,-156 96.5,-156 96.5,-168 96.5,-168 96.5,-174 90.5,-180 84.5,-180"/>
<text text-anchor="middle" x="60.5" y="-159.5" font-family="sans" font-size="10.00" fill="#000000">run_dotplot</text>
</g>
<!-- 2&#45;&gt;1 -->
<g id="edge3" class="edge">
<title>2&#45;&gt;1</title>
<path fill="none" stroke="#c0c0c0" stroke-width="2" d="M71.6031,-143.8314C76.5674,-135.7079 82.5222,-125.9637 87.9928,-117.0118"/>
<polygon fill="#c0c0c0" stroke="#c0c0c0" stroke-width="2" points="91.0194,-118.7712 93.2474,-108.4133 85.0464,-115.121 91.0194,-118.7712"/>
</g>
<!-- 3 -->
<g id="node4" class="node">
<title>3</title>
<path fill="none" stroke="#88d856" stroke-width="2" d="M109,-252C109,-252 12,-252 12,-252 6,-252 0,-246 0,-240 0,-240 0,-228 0,-228 0,-222 6,-216 12,-216 12,-216 109,-216 109,-216 115,-216 121,-222 121,-228 121,-228 121,-240 121,-240 121,-246 115,-252 109,-252"/>
<text text-anchor="middle" x="60.5" y="-231.5" font-family="sans" font-size="10.00" fill="#000000">install_cauris_dotplot</text>
</g>
<!-- 3&#45;&gt;2 -->
<g id="edge4" class="edge">
<title>3&#45;&gt;2</title>
<path fill="none" stroke="#c0c0c0" stroke-width="2" d="M60.5,-215.8314C60.5,-208.131 60.5,-198.9743 60.5,-190.4166"/>
<polygon fill="#c0c0c0" stroke="#c0c0c0" stroke-width="2" points="64.0001,-190.4132 60.5,-180.4133 57.0001,-190.4133 64.0001,-190.4132"/>
</g>
<!-- 4 -->
<g id="node5" class="node">
<title>4</title>
<path fill="none" stroke="#56d88a" stroke-width="2" d="M172.5,-180C172.5,-180 126.5,-180 126.5,-180 120.5,-180 114.5,-174 114.5,-168 114.5,-168 114.5,-156 114.5,-156 114.5,-150 120.5,-144 126.5,-144 126.5,-144 172.5,-144 172.5,-144 178.5,-144 184.5,-150 184.5,-156 184.5,-156 184.5,-168 184.5,-168 184.5,-174 178.5,-180 172.5,-180"/>
<text text-anchor="middle" x="149.5" y="-159.5" font-family="sans" font-size="10.00" fill="#000000">run_snippy</text>
</g>
<!-- 4&#45;&gt;1 -->
<g id="edge2" class="edge">
<title>4&#45;&gt;1</title>
<path fill="none" stroke="#c0c0c0" stroke-width="2" d="M138.1446,-143.8314C133.0674,-135.7079 126.9773,-125.9637 121.3824,-117.0118"/>
<polygon fill="#c0c0c0" stroke="#c0c0c0" stroke-width="2" points="124.2763,-115.0383 116.0083,-108.4133 118.3403,-118.7483 124.2763,-115.0383"/>
</g>
</g>
</svg>
